# xmcd
#
# Track frame offsets:
#	150
#	17019
#	33808
#	50128
#	64706
#	84240
#	101787
#	119810
#	133007
#	155079
#	173336
#	187027
#	200934
#	215303
#	233749
#	245603
#	263952
#	278840
#	296027
#	310426
#	326758
#
# Disc length: 4554 seconds
#
# Revision: 0
# Processed by: cddbd v1.5.2PL0 Copyright (c) Steve Scherf et al.
# Submitted via: EZCDAudioConverter 3.1.0.1
#
DISCID=4311c815
DTITLE=LATVIJAS ŠLĀDERAPTAUJA 13 - Mīļākās Dziesmas 2016
DYEAR=2016
DGENRE=
TTITLE0=Rumbas kvartets - Kumeliņš
TTITLE1=Apvienība jubilāri - Visa Dzīve
TTITLE2=Andrejs un Draugi no Cēsīm - Jāņvakarā
TTITLE3=Liepavots - Meitene Mana
TTITLE4=Sestā Jūdze - Pieci Soļi Nedēļa Vai Mūžs
TTITLE5=Viktors Tilčiks - Lietus Melodija
TTITLE6=Galaktika and Oranžā Kora Meitenes - Kopā Tik un Tā
TTITLE7=Aigariņš - Ripo, Ripo Saulīt
TTITLE8=Radošā Apvienība Beverīnas Raksti - Trikātas Valsis
TTITLE9=Harijs Joniškāns - Gaismas Kad Pamazām Dziest
TTITLE10=Santa Kasparsone - Ziedu Kurpēs Vasara
TTITLE11=Jūrkant' - Vizbulītes
TTITLE12=Dricānu Dominante - Pieguļā
TTITLE13=Igauņu Ģimene - Draugs Pie Manis Nāc
TTITLE14=Dvinskas Muzikanti - Hei, Broļ Latgalīt
TTITLE15=Rikardions - Gliemezis
TTITLE16=Muiža - Pāri Upei
TTITLE17=Vēja Runa, Bruģis, Brīvdiena, Kaspars Maks - Mana Mazā Dzimtā Latvija
TTITLE18=Brīvdiena - Meitene No Gulbenes
TTITLE19=Sandris Dubovs - Rudzupuķe
TTITLE20=Vilx - Devītais Vilnis
EXTD=
EXTT0=
EXTT1=
EXTT2=
EXTT3=
EXTT4=
EXTT5=
EXTT6=
EXTT7=
EXTT8=
EXTT9=
EXTT10=
EXTT11=
EXTT12=
EXTT13=
EXTT14=
EXTT15=
EXTT16=
EXTT17=
EXTT18=
EXTT19=
EXTT20=
PLAYORDER=
